<svg version="1.1" id="Layer_1" xmlns="http://www.w3.org/2000/svg" xmlns:xlink="http://www.w3.org/1999/xlink" x="0px" y="0px"
	 width="100%" viewBox="0 0 460 462" enable-background="new 0 0 460 462" xml:space="preserve">
<path fill="#FFFFFF" opacity="1.000000" stroke="none" 
	d="
M427.000000,463.000000 
	C284.666656,463.000000 142.833328,463.000000 1.000000,463.000000 
	C1.000000,309.000000 1.000000,155.000000 1.000000,1.000000 
	C154.333328,1.000000 307.666656,1.000000 461.000000,1.000000 
	C461.000000,155.000000 461.000000,309.000000 461.000000,463.000000 
	C449.833344,463.000000 438.666656,463.000000 427.000000,463.000000 
M431.162354,239.398453 
	C433.858795,243.789688 436.335419,248.342178 439.373230,252.483002 
	C440.408478,253.894089 442.895050,254.940826 444.640198,254.837143 
	C445.521301,254.784775 446.885986,251.801605 446.909058,250.128128 
	C447.094818,236.654037 447.114075,223.174515 446.879181,209.701935 
	C446.851288,208.102478 444.987946,206.535004 443.975372,204.952713 
	C442.961700,206.524414 441.117645,208.071823 441.070831,209.671799 
	C440.793549,219.147263 440.945740,228.634979 440.916412,238.118454 
	C440.912781,239.285614 440.688232,240.452103 440.438873,242.833633 
	C433.055176,230.661499 426.459808,219.518494 419.505310,208.604309 
	C418.411896,206.888321 415.690735,206.209534 413.722198,205.051163 
	C412.881409,207.037262 411.347229,209.011383 411.312622,211.011444 
	C411.091187,223.818756 411.069641,236.634445 411.335144,249.440079 
	C411.375946,251.409531 413.132843,254.928284 414.273254,255.002365 
	C418.191925,255.256927 417.530304,251.684006 417.552765,249.153732 
	C417.630981,240.336365 417.566345,231.517807 417.605377,222.699921 
	C417.610413,221.559769 417.904755,220.420898 418.224182,218.150452 
	C422.859222,225.741470 426.834076,232.251343 431.162354,239.398453 
M166.656982,254.403580 
	C170.346619,256.284607 172.024628,254.802582 172.076828,251.013382 
	C172.154114,245.402603 172.096817,239.789963 172.096817,233.791748 
	C174.201996,233.791748 175.708603,233.995331 177.140671,233.754944 
	C182.151230,232.913803 185.155991,234.762482 186.936691,239.649719 
	C188.406296,243.683121 190.771194,247.388306 192.710602,251.253342 
	C193.857437,253.538849 195.043106,256.287659 198.175323,254.864334 
	C201.529938,253.339951 199.765442,250.699493 198.673264,248.494141 
	C196.116714,243.331970 193.495972,238.201569 190.935577,233.126419 
	C199.050858,227.848022 201.661545,222.146088 199.630173,214.901154 
	C197.753098,208.206512 192.405426,204.859055 183.213623,204.717468 
	C178.882996,204.650742 174.546173,204.825241 170.220154,204.668991 
	C166.745972,204.543518 165.456100,206.085907 165.489044,209.438202 
	C165.575760,218.267273 165.434586,227.098755 165.539169,235.927414 
	C165.609879,241.896454 165.943375,247.862396 166.656982,254.403580 
M290.907104,244.629761 
	C292.105225,247.005890 293.307892,249.379761 294.500183,251.758804 
	C295.680084,254.113083 297.238892,256.705505 300.036011,254.669830 
	C301.056244,253.927338 300.976868,250.461319 300.235931,248.737961 
	C297.973785,243.476318 295.145782,238.457977 292.590179,233.447388 
	C300.829193,227.911896 303.337738,222.205566 301.131073,215.037231 
	C299.068634,208.337402 293.721161,205.107330 284.568481,205.059448 
	C280.571350,205.038528 276.566010,205.212448 272.579041,205.009460 
	C268.745239,204.814285 267.149750,206.276993 267.186432,210.202469 
	C267.311035,223.525513 267.111053,236.852966 267.384735,250.171555 
	C267.420471,251.910934 269.494934,253.608429 270.625092,255.325333 
	C271.746399,253.634048 273.688751,252.010361 273.834564,250.238800 
	C274.266327,244.993683 273.989014,239.690201 273.989014,234.502350 
	C285.001465,232.972122 285.001099,232.972305 289.437225,241.743607 
	C289.812561,242.485703 290.196808,243.223297 290.907104,244.629761 
M17.702726,219.524506 
	C17.703062,229.681229 17.784283,239.838943 17.660063,249.994141 
	C17.616308,253.571152 18.847775,255.133057 22.598179,255.037354 
	C29.919563,254.850525 37.258961,255.188065 44.568192,254.836456 
	C46.354435,254.750534 48.052898,252.839752 49.791721,251.767975 
	C47.982334,250.776642 46.272346,249.377884 44.336342,248.905579 
	C42.293201,248.407135 40.034473,248.791718 37.869926,248.791687 
	C23.097748,248.791443 23.097368,248.791519 24.545914,233.897858 
	C24.560999,233.742767 24.654760,233.595322 24.969011,232.763245 
	C29.973543,232.763245 35.257164,232.799072 40.539928,232.747437 
	C43.005318,232.723343 46.277229,233.020554 45.777687,229.391190 
	C45.610466,228.176254 42.460976,226.666916 40.582661,226.526947 
	C35.336143,226.135986 30.041498,226.390945 24.585804,226.390945 
	C24.585804,220.914505 24.585804,216.172012 24.585804,210.930954 
	C31.643047,210.930954 38.448334,211.105988 45.231770,210.798676 
	C46.782326,210.728409 48.257507,208.994431 49.767376,208.026154 
	C48.245590,206.919296 46.802929,205.018814 45.186855,204.857697 
	C40.735168,204.413879 36.210865,204.695724 31.715286,204.695297 
	C17.700441,204.693954 17.700441,204.694794 17.702726,219.524506 
M242.976929,253.665405 
	C251.400177,248.394943 252.331329,240.050171 251.858765,231.306702 
	C251.801102,230.239899 249.853012,228.536499 248.645859,228.409103 
	C245.024582,228.026978 241.308655,228.026917 237.689453,228.423477 
	C236.448502,228.559448 235.384216,230.307938 234.239243,231.319748 
	C235.472412,232.410889 236.556534,234.100723 237.973526,234.453445 
	C240.121429,234.988129 242.500763,234.593185 244.684341,234.593185 
	C245.847519,243.221176 242.680893,248.328400 236.028366,249.351822 
	C228.512680,250.508041 223.571289,246.953720 222.814377,238.789749 
	C222.236160,232.553299 222.235611,226.129257 223.052872,219.930359 
	C224.152267,211.591263 232.334610,207.922424 239.726242,211.986389 
	C241.403671,212.908646 242.494324,214.874786 244.150833,215.866226 
	C245.370712,216.596344 247.072281,216.521637 248.559219,216.805557 
	C248.781479,215.310364 249.550888,213.611847 249.089630,212.370621 
	C248.492096,210.762619 247.106552,209.282745 245.726669,208.156357 
	C235.027634,199.422729 218.396194,205.295456 216.225769,218.873734 
	C215.238632,225.049377 215.172714,231.523972 215.742676,237.766754 
	C217.133224,252.996811 227.909958,259.379944 242.976929,253.665405 
M124.919228,212.715088 
	C126.217842,212.125000 127.500786,211.069901 128.817795,211.025497 
	C134.466721,210.835037 140.138412,211.148605 145.772491,210.802109 
	C147.267746,210.710144 148.658707,208.922821 150.097549,207.913910 
	C148.744049,206.840302 147.423355,204.889999 146.031616,204.837891 
	C138.058899,204.539383 130.069214,204.711777 122.085457,204.680862 
	C119.053101,204.669128 118.052238,206.279221 118.061279,209.095993 
	C118.105629,222.901459 118.109169,236.707260 118.059761,250.512680 
	C118.048561,253.642578 119.346954,255.055573 122.542427,255.019012 
	C130.192719,254.931503 137.852036,255.167328 145.490036,254.848831 
	C147.085541,254.782303 148.604889,252.889206 150.159332,251.837875 
	C148.577286,250.820236 147.035492,249.006805 145.406143,248.924362 
	C138.781326,248.589218 132.129654,248.784943 125.190048,248.784943 
	C125.190048,243.381897 125.190048,238.323807 125.190048,232.775589 
	C130.554504,232.775589 135.693756,233.067383 140.770615,232.631882 
	C142.799240,232.457870 146.234344,230.825912 146.350021,229.604034 
	C146.677200,226.147842 143.407913,226.399307 140.922211,226.384537 
	C135.686050,226.353409 130.449570,226.375076 124.893425,226.375076 
	C124.893425,221.614456 124.893425,217.645462 124.919228,212.715088 
M337.398682,211.323242 
	C339.727478,211.317062 342.138458,211.678757 344.357758,211.182663 
	C345.990173,210.817780 347.371765,209.330658 348.865112,208.343613 
	C347.320435,207.250626 345.814880,205.284836 344.224365,205.213516 
	C336.753784,204.878479 329.257629,205.171265 321.775146,205.018845 
	C317.973114,204.941376 316.926483,206.710144 316.955627,210.206299 
	C317.066620,223.513138 317.078278,236.822174 316.950439,250.128693 
	C316.914948,253.822662 318.345184,255.155319 321.978699,255.065506 
	C328.960999,254.892929 335.950806,255.045792 342.937042,254.999054 
	C345.337067,254.982986 348.610382,255.671402 348.726471,252.065582 
	C348.845825,248.358093 345.567902,248.970886 343.153870,248.954407 
	C336.876038,248.911530 330.597778,248.939987 324.093170,248.939987 
	C324.093170,243.390427 324.093170,238.368790 324.093170,232.947403 
	C329.574829,232.947403 334.723999,233.210983 339.820160,232.806747 
	C341.643768,232.662094 344.635803,231.114670 344.843170,229.840973 
	C345.400360,226.418732 342.191742,226.773956 339.957672,226.733810 
	C334.717346,226.639633 329.474121,226.703659 324.121429,226.703659 
	C324.121429,221.176407 324.121429,216.448166 324.121429,211.322388 
	C328.480927,211.322388 332.454803,211.322388 337.398682,211.323242 
M366.181274,205.307922 
	C365.483124,206.856613 364.197418,208.398331 364.179016,209.955063 
	C364.019531,223.431671 364.137482,236.911270 364.054352,250.389252 
	C364.033081,253.840363 365.498627,255.117935 368.874939,255.055954 
	C376.027771,254.924606 383.184814,255.038147 390.339905,255.004364 
	C392.777069,254.992844 396.051636,255.491730 395.689240,251.821625 
	C395.578583,250.701187 392.362183,249.168961 390.501953,249.070099 
	C384.091583,248.729462 377.651978,248.939056 371.294830,248.939056 
	C371.294830,243.217926 371.294830,238.181198 371.294830,232.948929 
	C376.211578,232.948929 380.702698,233.093460 385.178589,232.894913 
	C387.876068,232.775269 392.187927,234.342316 392.163940,229.737289 
	C392.141418,225.422195 387.982574,227.027985 385.460968,226.915756 
	C380.706940,226.704147 375.936737,226.854675 371.178619,226.854675 
	C371.178619,221.349594 371.178619,216.585464 371.178619,211.322769 
	C377.776520,211.322769 384.066772,211.376602 390.355225,211.295395 
	C392.759705,211.264343 396.101624,211.698242 395.686920,208.035019 
	C395.554352,206.863922 392.360413,205.267212 390.516052,205.196320 
	C382.707825,204.896317 374.880341,205.097519 366.181274,205.307922 
M82.258766,239.049332 
	C78.793648,228.644348 75.453949,218.193954 71.720238,207.886261 
	C71.195656,206.438065 68.742485,205.688461 67.182022,204.615509 
	C66.647484,206.283020 65.268791,208.225433 65.708527,209.575653 
	C70.287086,223.634445 75.079430,237.626114 80.060463,251.547668 
	C80.600708,253.057632 82.596413,254.758728 84.112602,254.970459 
	C85.220375,255.125153 87.330849,253.221802 87.829926,251.820984 
	C92.848145,237.735992 97.707748,223.591919 102.331459,209.373260 
	C102.750832,208.083618 101.217026,206.158844 100.590248,204.529007 
	C99.213493,205.406784 97.490273,206.018814 96.556389,207.236313 
	C95.602127,208.480362 95.426941,210.320023 94.902855,211.896347 
	C91.478554,222.195801 88.052139,232.494537 84.288086,243.810654 
	C83.423691,241.778244 82.995522,240.771500 82.258766,239.049332 
z"/>
<path fill="#589F8B" opacity="1.000000" stroke="none" 
	d="
M430.985657,239.079834 
	C426.834076,232.251343 422.859222,225.741470 418.224182,218.150452 
	C417.904755,220.420898 417.610413,221.559769 417.605377,222.699921 
	C417.566345,231.517807 417.630981,240.336365 417.552765,249.153732 
	C417.530304,251.684006 418.191925,255.256927 414.273254,255.002365 
	C413.132843,254.928284 411.375946,251.409531 411.335144,249.440079 
	C411.069641,236.634445 411.091187,223.818756 411.312622,211.011444 
	C411.347229,209.011383 412.881409,207.037262 413.722198,205.051163 
	C415.690735,206.209534 418.411896,206.888321 419.505310,208.604309 
	C426.459808,219.518494 433.055176,230.661499 440.438873,242.833633 
	C440.688232,240.452103 440.912781,239.285614 440.916412,238.118454 
	C440.945740,228.634979 440.793549,219.147263 441.070831,209.671799 
	C441.117645,208.071823 442.961700,206.524414 443.975372,204.952698 
	C444.987946,206.535004 446.851288,208.102478 446.879181,209.701935 
	C447.114075,223.174515 447.094818,236.654037 446.909058,250.128128 
	C446.885986,251.801605 445.521301,254.784775 444.640198,254.837143 
	C442.895050,254.940826 440.408478,253.894089 439.373230,252.483002 
	C436.335419,248.342178 433.858795,243.789688 430.985657,239.079834 
z"/>
<path fill="#606971" opacity="1.000000" stroke="none" 
	d="
M166.408142,254.116638 
	C165.943375,247.862396 165.609879,241.896454 165.539169,235.927414 
	C165.434586,227.098755 165.575760,218.267273 165.489044,209.438202 
	C165.456100,206.085907 166.745972,204.543518 170.220154,204.668991 
	C174.546173,204.825241 178.882996,204.650742 183.213623,204.717468 
	C192.405426,204.859055 197.753098,208.206512 199.630173,214.901154 
	C201.661545,222.146088 199.050858,227.848022 190.935577,233.126419 
	C193.495972,238.201569 196.116714,243.331970 198.673264,248.494141 
	C199.765442,250.699493 201.529938,253.339951 198.175323,254.864334 
	C195.043106,256.287659 193.857437,253.538849 192.710602,251.253342 
	C190.771194,247.388306 188.406296,243.683121 186.936691,239.649719 
	C185.155991,234.762482 182.151230,232.913803 177.140671,233.754944 
	C175.708603,233.995331 174.201996,233.791748 172.096817,233.791748 
	C172.096817,239.789963 172.154114,245.402603 172.076828,251.013382 
	C172.024628,254.802582 170.346619,256.284607 166.408142,254.116638 
M190.201843,225.972885 
	C193.391434,223.626022 194.730637,220.236298 193.078308,216.857391 
	C191.931168,214.511520 189.320679,211.776779 186.977234,211.352692 
	C182.249817,210.497162 177.258865,211.097824 172.284531,211.097824 
	C172.284531,216.744614 172.284531,221.822083 172.284531,228.078033 
	C178.205917,227.486465 183.855057,226.922089 190.201843,225.972885 
z"/>
<path fill="#5BA18D" opacity="1.000000" stroke="none" 
	d="
M290.742004,244.296371 
	C290.196808,243.223297 289.812561,242.485703 289.437225,241.743607 
	C285.001099,232.972305 285.001465,232.972122 273.989014,234.502350 
	C273.989014,239.690201 274.266327,244.993683 273.834564,250.238800 
	C273.688751,252.010361 271.746399,253.634048 270.625092,255.325333 
	C269.494934,253.608429 267.420471,251.910934 267.384735,250.171555 
	C267.111053,236.852966 267.311035,223.525513 267.186432,210.202469 
	C267.149750,206.276993 268.745239,204.814285 272.579041,205.009460 
	C276.566010,205.212448 280.571350,205.038528 284.568481,205.059448 
	C293.721161,205.107330 299.068634,208.337402 301.131073,215.037231 
	C303.337738,222.205566 300.829193,227.911896 292.590179,233.447388 
	C295.145782,238.457977 297.973785,243.476318 300.235931,248.737961 
	C300.976868,250.461319 301.056244,253.927338 300.036011,254.669830 
	C297.238892,256.705505 295.680084,254.113083 294.500183,251.758804 
	C293.307892,249.379761 292.105225,247.005890 290.742004,244.296371 
M286.821075,211.216141 
	C282.714905,211.216141 278.608734,211.216141 274.246857,211.216141 
	C274.246857,216.911316 274.246857,222.126190 274.246857,227.526230 
	C275.104034,227.662476 275.730164,227.842224 276.357910,227.848282 
	C279.513092,227.878769 282.674500,227.986450 285.822937,227.838211 
	C291.557587,227.568207 294.582245,225.148407 295.053009,220.694473 
	C295.593262,215.582977 293.657288,213.132156 286.821075,211.216141 
z"/>
<path fill="#616A72" opacity="1.000000" stroke="none" 
	d="
M17.703020,219.030640 
	C17.700441,204.694794 17.700441,204.693954 31.715286,204.695297 
	C36.210865,204.695724 40.735168,204.413879 45.186855,204.857697 
	C46.802929,205.018814 48.245590,206.919296 49.767380,208.026154 
	C48.257507,208.994431 46.782326,210.728409 45.231770,210.798676 
	C38.448334,211.105988 31.643047,210.930954 24.585804,210.930954 
	C24.585804,216.172012 24.585804,220.914505 24.585804,226.390945 
	C30.041498,226.390945 35.336143,226.135986 40.582661,226.526947 
	C42.460976,226.666916 45.610466,228.176254 45.777687,229.391190 
	C46.277229,233.020554 43.005318,232.723343 40.539928,232.747437 
	C35.257164,232.799072 29.973543,232.763245 24.969011,232.763245 
	C24.654760,233.595322 24.560999,233.742767 24.545914,233.897858 
	C23.097368,248.791519 23.097748,248.791443 37.869926,248.791687 
	C40.034473,248.791718 42.293201,248.407135 44.336342,248.905579 
	C46.272346,249.377884 47.982334,250.776642 49.791718,251.767975 
	C48.052898,252.839752 46.354435,254.750534 44.568192,254.836456 
	C37.258961,255.188065 29.919563,254.850525 22.598179,255.037354 
	C18.847775,255.133057 17.616308,253.571152 17.660063,249.994141 
	C17.784283,239.838943 17.703062,229.681229 17.703020,219.030640 
z"/>
<path fill="#59A08C" opacity="1.000000" stroke="none" 
	d="
M242.636368,253.835159 
	C227.909958,259.379944 217.133224,252.996811 215.742676,237.766754 
	C215.172714,231.523972 215.238632,225.049377 216.225769,218.873734 
	C218.396194,205.295456 235.027634,199.422729 245.726669,208.156357 
	C247.106552,209.282745 248.492096,210.762619 249.089630,212.370621 
	C249.550888,213.611847 248.781479,215.310364 248.559204,216.805557 
	C247.072281,216.521637 245.370712,216.596344 244.150833,215.866226 
	C242.494324,214.874786 241.403671,212.908646 239.726242,211.986389 
	C232.334610,207.922424 224.152267,211.591263 223.052872,219.930359 
	C222.235611,226.129257 222.236160,232.553299 222.814377,238.789749 
	C223.571289,246.953720 228.512680,250.508041 236.028366,249.351822 
	C242.680893,248.328400 245.847519,243.221176 244.684341,234.593185 
	C242.500763,234.593185 240.121429,234.988129 237.973526,234.453445 
	C236.556534,234.100723 235.472412,232.410889 234.239227,231.319733 
	C235.384216,230.307938 236.448502,228.559448 237.689453,228.423477 
	C241.308655,228.026917 245.024582,228.026978 248.645859,228.409103 
	C249.853012,228.536499 251.801102,230.239899 251.858765,231.306702 
	C252.331329,240.050171 251.400177,248.394943 242.636368,253.835159 
z"/>
<path fill="#646D74" opacity="1.000000" stroke="none" 
	d="
M124.906326,213.195770 
	C124.893425,217.645462 124.893425,221.614456 124.893425,226.375076 
	C130.449570,226.375076 135.686050,226.353409 140.922211,226.384537 
	C143.407913,226.399307 146.677200,226.147842 146.350021,229.604034 
	C146.234344,230.825912 142.799240,232.457870 140.770615,232.631882 
	C135.693756,233.067383 130.554504,232.775589 125.190048,232.775589 
	C125.190048,238.323807 125.190048,243.381897 125.190048,248.784943 
	C132.129654,248.784943 138.781326,248.589218 145.406143,248.924362 
	C147.035492,249.006805 148.577286,250.820236 150.159332,251.837860 
	C148.604889,252.889206 147.085541,254.782303 145.490036,254.848831 
	C137.852036,255.167328 130.192719,254.931503 122.542427,255.019012 
	C119.346954,255.055573 118.048561,253.642578 118.059761,250.512680 
	C118.109169,236.707260 118.105629,222.901459 118.061279,209.095993 
	C118.052238,206.279221 119.053101,204.669128 122.085457,204.680862 
	C130.069214,204.711777 138.058899,204.539383 146.031616,204.837891 
	C147.423355,204.889999 148.744049,206.840302 150.097549,207.913910 
	C148.658707,208.922821 147.267746,210.710144 145.772491,210.802109 
	C140.138412,211.148605 134.466721,210.835037 128.817795,211.025497 
	C127.500786,211.069901 126.217842,212.125000 124.906326,213.195770 
z"/>
<path fill="#589F8B" opacity="1.000000" stroke="none" 
	d="
M336.913696,211.322815 
	C332.454803,211.322388 328.480927,211.322388 324.121429,211.322388 
	C324.121429,216.448166 324.121429,221.176407 324.121429,226.703659 
	C329.474121,226.703659 334.717346,226.639633 339.957672,226.733810 
	C342.191742,226.773956 345.400360,226.418732 344.843170,229.840973 
	C344.635803,231.114670 341.643768,232.662094 339.820160,232.806747 
	C334.723999,233.210983 329.574829,232.947403 324.093170,232.947403 
	C324.093170,238.368790 324.093170,243.390427 324.093170,248.939987 
	C330.597778,248.939987 336.876038,248.911530 343.153870,248.954407 
	C345.567902,248.970886 348.845825,248.358093 348.726471,252.065582 
	C348.610382,255.671402 345.337067,254.982986 342.937042,254.999054 
	C335.950806,255.045792 328.960999,254.892929 321.978699,255.065506 
	C318.345184,255.155319 316.914948,253.822662 316.950439,250.128693 
	C317.078278,236.822174 317.066620,223.513138 316.955627,210.206299 
	C316.926483,206.710144 317.973114,204.941376 321.775146,205.018845 
	C329.257629,205.171265 336.753784,204.878479 344.224365,205.213516 
	C345.814880,205.284836 347.320435,207.250626 348.865112,208.343613 
	C347.371765,209.330658 345.990173,210.817780 344.357758,211.182663 
	C342.138458,211.678757 339.727478,211.317062 336.913696,211.322815 
z"/>
<path fill="#58A08B" opacity="1.000000" stroke="none" 
	d="
M366.620575,205.211731 
	C374.880341,205.097519 382.707825,204.896317 390.516052,205.196320 
	C392.360413,205.267212 395.554352,206.863922 395.686920,208.035019 
	C396.101624,211.698242 392.759705,211.264343 390.355225,211.295395 
	C384.066772,211.376602 377.776520,211.322769 371.178619,211.322769 
	C371.178619,216.585464 371.178619,221.349594 371.178619,226.854675 
	C375.936737,226.854675 380.706940,226.704147 385.460968,226.915756 
	C387.982574,227.027985 392.141418,225.422195 392.163940,229.737289 
	C392.187927,234.342316 387.876068,232.775269 385.178589,232.894913 
	C380.702698,233.093460 376.211578,232.948929 371.294830,232.948929 
	C371.294830,238.181198 371.294830,243.217926 371.294830,248.939056 
	C377.651978,248.939056 384.091583,248.729462 390.501953,249.070099 
	C392.362183,249.168961 395.578583,250.701187 395.689240,251.821625 
	C396.051636,255.491730 392.777069,254.992844 390.339905,255.004364 
	C383.184814,255.038147 376.027771,254.924606 368.874939,255.055954 
	C365.498627,255.117935 364.033081,253.840363 364.054352,250.389252 
	C364.137482,236.911270 364.019531,223.431671 364.179016,209.955063 
	C364.197418,208.398331 365.483124,206.856613 366.620575,205.211731 
z"/>
<path fill="#636B73" opacity="1.000000" stroke="none" 
	d="
M82.413055,239.407043 
	C82.995522,240.771500 83.423691,241.778244 84.288086,243.810654 
	C88.052139,232.494537 91.478554,222.195801 94.902855,211.896347 
	C95.426941,210.320023 95.602127,208.480362 96.556389,207.236313 
	C97.490273,206.018814 99.213493,205.406784 100.590248,204.529007 
	C101.217026,206.158844 102.750832,208.083618 102.331459,209.373260 
	C97.707748,223.591919 92.848145,237.735992 87.829926,251.820984 
	C87.330849,253.221802 85.220375,255.125153 84.112602,254.970459 
	C82.596413,254.758728 80.600708,253.057632 80.060463,251.547668 
	C75.079430,237.626114 70.287086,223.634445 65.708527,209.575653 
	C65.268791,208.225433 66.647484,206.283020 67.182022,204.615509 
	C68.742485,205.688461 71.195656,206.438065 71.720238,207.886261 
	C75.453949,218.193954 78.793648,228.644348 82.413055,239.407043 
z"/>
<path fill="#FAFAFA" opacity="1.000000" stroke="none" 
	d="
M189.853027,226.165298 
	C183.855057,226.922089 178.205917,227.486465 172.284531,228.078033 
	C172.284531,221.822083 172.284531,216.744614 172.284531,211.097824 
	C177.258865,211.097824 182.249817,210.497162 186.977234,211.352692 
	C189.320679,211.776779 191.931168,214.511520 193.078308,216.857391 
	C194.730637,220.236298 193.391434,223.626022 189.853027,226.165298 
z"/>
<path fill="#FAFCFC" opacity="1.000000" stroke="none" 
	d="
M287.245270,211.281769 
	C293.657288,213.132156 295.593262,215.582977 295.053009,220.694473 
	C294.582245,225.148407 291.557587,227.568207 285.822937,227.838211 
	C282.674500,227.986450 279.513092,227.878769 276.357910,227.848282 
	C275.730164,227.842224 275.104034,227.662476 274.246857,227.526230 
	C274.246857,222.126190 274.246857,216.911316 274.246857,211.216141 
	C278.608734,211.216141 282.714905,211.216141 287.245270,211.281769 
z"/>
</svg>